<svg height="1066" viewBox="0 0 1263 1066" width="1263" xmlns="http://www.w3.org/2000/svg"><g fill="#fff" stroke="#fff" stroke-width="28"><path d="m418.200012 870.099976c-9 0-13.5-12-13.5-36.099976v-595.099976c0-11.5-2.299988-16.900024-7-16.200073-28.400024 7.200073-42.700012 10.800049-43.100006 10.800049-7.899994.699951-11.800018-7.199951-11.800018-23.699951v-51.700073c0-14.299927 4.300018-22.400025 12.900024-24.199952l142.200012-36.599975c1.099976-.300049 2.699952-.5 4.799988-.5 7.899964 0 11.799988 8.399902 11.799988 25.299927v712c0 24.099975-4.700012 36.099975-14 36.099975zm368.299988 1.099975c-14.400024 0-26.799988-1-37.400024-3-10.599976-2-21.599976-6.5-33.099976-13.5s-20.900024-16.599975-28.299988-28.799927c-7.400024-12.200073-13.400024-29.300048-18-51.200073-4.600036-21.899902-7-47.899902-7-78.099975v-276.199952c0-7.200073-2-10.800048-5.900024-10.800048h-33.399964c-9 0-13.5-8.599976-13.5-25.799927v-29.100098c0-17.599975 4.5-26.399902 13.5-26.399902h33.399964c3.900024 0 5.900024-4.800049 5.900024-14.5l9.700012-209.5c1.099976-19 5.699952-28.5 14-28.5h53.899964c9 0 13.5 9.5 13.5 28.5v209.5c0 9.699951 2.100036 14.5 6.5 14.5h68.700012c9 0 13.5 8.799927 13.5 26.399902v29.100098c0 17.199951-4.5 25.799927-13.5 25.799927h-68.900024c-2.5 0-4.199952.599975-5.099976 1.900024-.900024 1.199951-1.299988 4.199951-1.299988 8.900024v277.900025c0 20.799927 1.299988 38.199951 4 52 2.700012 13.799927 6.599976 24 11.799988 30.399902 5.200012 6.400025 10.400024 10.800049 15.599976 12.900025 5.200012 2.200073 11.600036 3.200073 19.100036 3.200073h38.200012c9.699952 0 14.5 6.699951 14.5 19.899902v32.300049c0 14.699951-5.200012 22.099976-15.600036 22.099976zm206.699951 64.600098c8.200073 0 15.400025-6.700073 21.5-20.200073 6.100098-13.5 9.200073-32.599976 9.200073-57.400025 0-5.799927-3.599975-25.699951-10.800048-59.799927l-105.599976-438.900024c-.699951-5-1.099976-9-1.099976-11.900024 0-12.900025 2.699952-19.400025 8.099976-19.400025h65.199951c5 0 9.100098 1.700073 12.400025 5.100098 3.300048 3.399902 5.800048 10.299927 7.5 20.699951l70 370.5c1.400024 4.300049 2.300048 6.5 2.700073 6.5 1.399902 0 2.199951-2 2.199951-5.900024l54.900024-369.5c1.400025-10.799927 3.699952-18 6.699952-21.799927 3-3.800049 6.900024-5.700073 11.599975-5.700073h45.200073c6.099976 0 9.199952 7 9.199952 21 0 3.200073-.400025 7.400024-1.099976 12.400024l-95.900024 499.300049c-7.5 41.299927-15.799927 72.899902-24.799927 94.799927-9 21.900024-19 36.800048-30.200073 44.700073-11.099976 7.899902-25.799927 12-44.199952 12.399902h-5.400024c-29.099976 0-48.800049-7.699951-59.199951-23.199951-2.900025-3.199951-4.300049-11.5-4.300049-24.800049 0-26.599975 4.300049-39.899902 12.900024-39.899902.699952 0 7.199952 1.799927 19.400025 5.399902 12.399902 3.800049 20.299927 5.600098 23.899902 5.600098z"/><path d="m147.200012 871.099976c-9 0-13.5-12-13.5-36.099976v-595.099976c0-11.5-2.300018-16.900024-7-16.200073-28.400009 7.200073-42.700012 10.800049-43.100006 10.800049-7.900009.699951-11.800003-7.199951-11.800003-23.699951v-51.700073c0-14.299927 4.300003-22.400025 12.899994-24.199952l142.300003-36.700073c1.100006-.299927 2.700012-.5 4.799988-.5 7.900024 0 11.800018 8.400025 11.800018 25.300049v712c0 24.099976-4.700012 36.099976-14 36.099976z"/></g></svg>